<svg xmlns="http://www.w3.org/2000/svg" width="128" height="128" viewBox="0 0 128 128">
  <defs>
    <radialGradient id="g" cx="35%" cy="30%" r="70%">
      <stop offset="0" stop-color="#fff4b3"></stop>
      <stop offset="0.35" stop-color="#ffd74a"></stop>
      <stop offset="1" stop-color="#e08a00"></stop>
    </radialGradient>
  </defs>
  <circle cx="64" cy="64" r="54" fill="url(#g)" stroke="#ffd06a" stroke-width="6"></circle>
  <circle cx="64" cy="64" r="40" fill="none" stroke="#ffefb0" stroke-width="6" opacity="0.75"></circle>
  <path d="M74 36c-10 0-18 6-18 14 0 7 5 11 16 13 12 2 15 4 15 9 0 5-6 9-13 9-7 0-12-3-14-8l-10 4c4 10 12 15 24 15v8h8v-8c12-2 20-10 20-20 0-11-7-16-23-19-10-2-13-4-13-8 0-4 4-7 10-7 5 0 9 2 11 6l10-4c-3-8-10-12-21-13v-8h-8v8z" fill="#ffefb0" opacity="0.9"></path>
  <circle cx="44" cy="42" r="10" fill="#fff" opacity="0.35"></circle>
</svg>