<svg xmlns="http://www.w3.org/2000/svg" width="160" height="160" viewBox="0 0 160 160">
  <path d="M68 24c-8 0-14 6-14 14v48l-6-6c-6-6-16-6-22 0s-6 16 0 22l26 26c8 8 18 12 30 12h18c18 0 32-14 32-32V62c0-8-6-14-14-14-6 0-11 3-13 8-2-7-8-12-16-12-6 0-11 3-13 8V38c0-8-6-14-14-14z" fill="#ffffff" stroke="#cfd7de" stroke-width="6" stroke-linejoin="round"></path>
  <path d="M108 18c10 8 16 18 18 30" fill="none" stroke="#ffffff" stroke-width="8" stroke-linecap="round" opacity="0.9"></path>
  <path d="M128 36c8 4 14 10 18 18" fill="none" stroke="#ffffff" stroke-width="8" stroke-linecap="round" opacity="0.9"></path>
</svg>