<svg xmlns="http://www.w3.org/2000/svg" width="512" height="512" viewBox="0 0 512 512">
  <defs>
    <radialGradient id="bg" cx="50%" cy="35%" r="75%">
      <stop offset="0" stop-color="#8fe0ff"></stop>
      <stop offset="1" stop-color="#1d6fdc"></stop>
    </radialGradient>
    <radialGradient id="coin" cx="35%" cy="30%" r="80%">
      <stop offset="0" stop-color="#fff7c5"></stop>
      <stop offset="0.35" stop-color="#ffd85b"></stop>
      <stop offset="1" stop-color="#de8300"></stop>
    </radialGradient>
  </defs>

  <rect width="512" height="512" rx="92" fill="url(#bg)"></rect>

  <!-- cash stacks -->
  <g opacity="0.95">
    <rect x="58" y="320" width="190" height="90" rx="16" fill="#4bd26a"></rect>
    <rect x="72" y="334" width="160" height="18" rx="9" fill="#bff4c9"></rect>
    <rect x="268" y="320" width="190" height="90" rx="16" fill="#4bd26a"></rect>
    <rect x="282" y="334" width="160" height="18" rx="9" fill="#bff4c9"></rect>
    <rect x="128" y="360" width="44" height="70" rx="12" fill="#f4d06a"></rect>
    <rect x="340" y="360" width="44" height="70" rx="12" fill="#f4d06a"></rect>
  </g>

  <!-- big coin -->
  <circle cx="256" cy="250" r="160" fill="url(#coin)" stroke="#ffd06a" stroke-width="16"></circle>
  <circle cx="256" cy="250" r="118" fill="none" stroke="#ffefb0" stroke-width="14" opacity="0.85"></circle>

  <!-- crown -->
  <path d="M160 140c20 24 34 24 48 0 16 22 32 22 48 0 14 24 28 24 48 0l18 62H142l18-62z" fill="#ffd85b" stroke="#ffefb0" stroke-width="10" stroke-linejoin="round"></path>
  <circle cx="208" cy="150" r="16" fill="#55b8ff"></circle>
  <circle cx="256" cy="140" r="16" fill="#ff6b6b"></circle>
  <circle cx="304" cy="150" r="16" fill="#55b8ff"></circle>

  <!-- $ sign -->
  <path d="M290 170c-26 0-46 16-46 36 0 18 12 28 40 34 30 6 38 10 38 22 0 12-16 22-34 22-18 0-30-8-36-20l-26 10c10 26 30 40 62 42v18h20v-18c30-6 48-26 48-52 0-30-18-44-60-52-26-6-34-10-34-20 0-10 10-18 26-18 14 0 24 6 30 16l26-10c-10-22-28-34-52-36v-20h-20v20z" fill="#ffefb0" opacity="0.92"></path>

  <!-- sparkles -->
  <g fill="#fff" opacity="0.85">
    <path d="M86 118l10 20 20 10-20 10-10 20-10-20-20-10 20-10z"></path>
    <path d="M440 136l8 16 16 8-16 8-8 16-8-16-16-8 16-8z"></path>
    <path d="M424 420l8 16 16 8-16 8-8 16-8-16-16-8 16-8z"></path>
  </g>
</svg>